<mxfile host="app.diagrams.net" agent="Mozilla/5.0 (Windows NT 10.0; Win64; x64) AppleWebKit/537.36 (KHTML, like Gecko) Chrome/128.0.0.0 Safari/537.36 OPR/114.0.0.0" version="25.0.3">
  <diagram id="C5RBs43oDa-KdzZeNtuy" name="Page-1">
    <mxGraphModel dx="2218" dy="701" grid="1" gridSize="10" guides="1" tooltips="1" connect="1" arrows="1" fold="1" page="1" pageScale="1" pageWidth="827" pageHeight="1169" math="0" shadow="0">
      <root>
        <mxCell id="WIyWlLk6GJQsqaUBKTNV-0" />
        <mxCell id="WIyWlLk6GJQsqaUBKTNV-1" parent="WIyWlLk6GJQsqaUBKTNV-0" />
        <mxCell id="4q2FcQhVwxfOFOzRsDYL-0" value="Inicio" style="ellipse;whiteSpace=wrap;html=1;" vertex="1" parent="WIyWlLk6GJQsqaUBKTNV-1">
          <mxGeometry x="250" y="110" width="120" height="70" as="geometry" />
        </mxCell>
        <mxCell id="4q2FcQhVwxfOFOzRsDYL-1" value="Fim" style="ellipse;whiteSpace=wrap;html=1;" vertex="1" parent="WIyWlLk6GJQsqaUBKTNV-1">
          <mxGeometry x="250" y="1090" width="120" height="70" as="geometry" />
        </mxCell>
        <mxCell id="4q2FcQhVwxfOFOzRsDYL-2" value="nome" style="html=1;strokeWidth=2;shape=manualInput;whiteSpace=wrap;rounded=1;size=26;arcSize=11;" vertex="1" parent="WIyWlLk6GJQsqaUBKTNV-1">
          <mxGeometry x="260" y="200" width="100" height="60" as="geometry" />
        </mxCell>
        <mxCell id="4q2FcQhVwxfOFOzRsDYL-3" value="nota1" style="html=1;strokeWidth=2;shape=manualInput;whiteSpace=wrap;rounded=1;size=26;arcSize=11;" vertex="1" parent="WIyWlLk6GJQsqaUBKTNV-1">
          <mxGeometry x="260" y="290" width="100" height="60" as="geometry" />
        </mxCell>
        <mxCell id="4q2FcQhVwxfOFOzRsDYL-12" style="edgeStyle=orthogonalEdgeStyle;rounded=0;orthogonalLoop=1;jettySize=auto;html=1;exitX=0.5;exitY=1;exitDx=0;exitDy=0;entryX=0.5;entryY=0;entryDx=0;entryDy=0;" edge="1" parent="WIyWlLk6GJQsqaUBKTNV-1" source="4q2FcQhVwxfOFOzRsDYL-4" target="4q2FcQhVwxfOFOzRsDYL-5">
          <mxGeometry relative="1" as="geometry" />
        </mxCell>
        <mxCell id="4q2FcQhVwxfOFOzRsDYL-4" value="nota2" style="html=1;strokeWidth=2;shape=manualInput;whiteSpace=wrap;rounded=1;size=26;arcSize=11;" vertex="1" parent="WIyWlLk6GJQsqaUBKTNV-1">
          <mxGeometry x="260" y="380" width="100" height="60" as="geometry" />
        </mxCell>
        <mxCell id="4q2FcQhVwxfOFOzRsDYL-5" value="media = (nota1+nota2)/2" style="rounded=1;whiteSpace=wrap;html=1;absoluteArcSize=1;arcSize=14;strokeWidth=2;" vertex="1" parent="WIyWlLk6GJQsqaUBKTNV-1">
          <mxGeometry x="160" y="470" width="300" height="50" as="geometry" />
        </mxCell>
        <mxCell id="4q2FcQhVwxfOFOzRsDYL-14" style="edgeStyle=orthogonalEdgeStyle;rounded=0;orthogonalLoop=1;jettySize=auto;html=1;exitX=0.5;exitY=1;exitDx=0;exitDy=0;exitPerimeter=0;entryX=0.5;entryY=0;entryDx=0;entryDy=0;entryPerimeter=0;" edge="1" parent="WIyWlLk6GJQsqaUBKTNV-1" source="4q2FcQhVwxfOFOzRsDYL-6" target="4q2FcQhVwxfOFOzRsDYL-15">
          <mxGeometry relative="1" as="geometry" />
        </mxCell>
        <mxCell id="4q2FcQhVwxfOFOzRsDYL-6" value="nome&lt;br&gt;nota1&lt;div&gt;nota2&lt;br&gt;media&lt;/div&gt;" style="strokeWidth=2;html=1;shape=mxgraph.flowchart.display;whiteSpace=wrap;" vertex="1" parent="WIyWlLk6GJQsqaUBKTNV-1">
          <mxGeometry x="235" y="547" width="150" height="75" as="geometry" />
        </mxCell>
        <mxCell id="4q2FcQhVwxfOFOzRsDYL-9" style="edgeStyle=orthogonalEdgeStyle;rounded=0;orthogonalLoop=1;jettySize=auto;html=1;exitX=0.5;exitY=1;exitDx=0;exitDy=0;" edge="1" parent="WIyWlLk6GJQsqaUBKTNV-1" source="4q2FcQhVwxfOFOzRsDYL-0">
          <mxGeometry relative="1" as="geometry">
            <mxPoint x="310" y="210" as="targetPoint" />
          </mxGeometry>
        </mxCell>
        <mxCell id="4q2FcQhVwxfOFOzRsDYL-10" style="edgeStyle=orthogonalEdgeStyle;rounded=0;orthogonalLoop=1;jettySize=auto;html=1;exitX=0.5;exitY=1;exitDx=0;exitDy=0;entryX=0.5;entryY=0.15;entryDx=0;entryDy=0;entryPerimeter=0;" edge="1" parent="WIyWlLk6GJQsqaUBKTNV-1" source="4q2FcQhVwxfOFOzRsDYL-2" target="4q2FcQhVwxfOFOzRsDYL-3">
          <mxGeometry relative="1" as="geometry" />
        </mxCell>
        <mxCell id="4q2FcQhVwxfOFOzRsDYL-11" style="edgeStyle=orthogonalEdgeStyle;rounded=0;orthogonalLoop=1;jettySize=auto;html=1;exitX=0.5;exitY=1;exitDx=0;exitDy=0;entryX=0.51;entryY=0.15;entryDx=0;entryDy=0;entryPerimeter=0;" edge="1" parent="WIyWlLk6GJQsqaUBKTNV-1" source="4q2FcQhVwxfOFOzRsDYL-3" target="4q2FcQhVwxfOFOzRsDYL-4">
          <mxGeometry relative="1" as="geometry" />
        </mxCell>
        <mxCell id="4q2FcQhVwxfOFOzRsDYL-13" style="edgeStyle=orthogonalEdgeStyle;rounded=0;orthogonalLoop=1;jettySize=auto;html=1;exitX=0.5;exitY=1;exitDx=0;exitDy=0;entryX=0.5;entryY=0;entryDx=0;entryDy=0;entryPerimeter=0;" edge="1" parent="WIyWlLk6GJQsqaUBKTNV-1" source="4q2FcQhVwxfOFOzRsDYL-5" target="4q2FcQhVwxfOFOzRsDYL-6">
          <mxGeometry relative="1" as="geometry" />
        </mxCell>
        <mxCell id="4q2FcQhVwxfOFOzRsDYL-17" style="edgeStyle=orthogonalEdgeStyle;rounded=0;orthogonalLoop=1;jettySize=auto;html=1;exitX=1;exitY=0.5;exitDx=0;exitDy=0;exitPerimeter=0;entryX=0.5;entryY=0;entryDx=0;entryDy=0;entryPerimeter=0;" edge="1" parent="WIyWlLk6GJQsqaUBKTNV-1" source="4q2FcQhVwxfOFOzRsDYL-15" target="4q2FcQhVwxfOFOzRsDYL-16">
          <mxGeometry relative="1" as="geometry">
            <mxPoint x="470" y="710" as="targetPoint" />
          </mxGeometry>
        </mxCell>
        <mxCell id="4q2FcQhVwxfOFOzRsDYL-18" value="Sim" style="edgeLabel;html=1;align=center;verticalAlign=middle;resizable=0;points=[];" vertex="1" connectable="0" parent="4q2FcQhVwxfOFOzRsDYL-17">
          <mxGeometry x="-0.5862" y="2" relative="1" as="geometry">
            <mxPoint x="18" y="-8" as="offset" />
          </mxGeometry>
        </mxCell>
        <mxCell id="4q2FcQhVwxfOFOzRsDYL-21" style="edgeStyle=orthogonalEdgeStyle;rounded=0;orthogonalLoop=1;jettySize=auto;html=1;exitX=0;exitY=0.5;exitDx=0;exitDy=0;exitPerimeter=0;entryX=0.5;entryY=0;entryDx=0;entryDy=0;entryPerimeter=0;" edge="1" parent="WIyWlLk6GJQsqaUBKTNV-1" source="4q2FcQhVwxfOFOzRsDYL-15" target="4q2FcQhVwxfOFOzRsDYL-20">
          <mxGeometry relative="1" as="geometry">
            <mxPoint x="150" y="710" as="targetPoint" />
          </mxGeometry>
        </mxCell>
        <mxCell id="4q2FcQhVwxfOFOzRsDYL-22" value="Não" style="edgeLabel;html=1;align=center;verticalAlign=middle;resizable=0;points=[];" vertex="1" connectable="0" parent="4q2FcQhVwxfOFOzRsDYL-21">
          <mxGeometry x="-0.3067" y="-2" relative="1" as="geometry">
            <mxPoint x="-8" y="-8" as="offset" />
          </mxGeometry>
        </mxCell>
        <mxCell id="4q2FcQhVwxfOFOzRsDYL-15" value="media &amp;gt;= 7&amp;nbsp;" style="strokeWidth=2;html=1;shape=mxgraph.flowchart.decision;whiteSpace=wrap;" vertex="1" parent="WIyWlLk6GJQsqaUBKTNV-1">
          <mxGeometry x="260" y="670" width="100" height="80" as="geometry" />
        </mxCell>
        <mxCell id="4q2FcQhVwxfOFOzRsDYL-16" value="Aprovado" style="strokeWidth=2;html=1;shape=mxgraph.flowchart.display;whiteSpace=wrap;" vertex="1" parent="WIyWlLk6GJQsqaUBKTNV-1">
          <mxGeometry x="414" y="780" width="100" height="60" as="geometry" />
        </mxCell>
        <mxCell id="4q2FcQhVwxfOFOzRsDYL-24" style="edgeStyle=orthogonalEdgeStyle;rounded=0;orthogonalLoop=1;jettySize=auto;html=1;exitX=1;exitY=0.5;exitDx=0;exitDy=0;exitPerimeter=0;entryX=0.5;entryY=0;entryDx=0;entryDy=0;entryPerimeter=0;" edge="1" parent="WIyWlLk6GJQsqaUBKTNV-1" source="4q2FcQhVwxfOFOzRsDYL-20" target="4q2FcQhVwxfOFOzRsDYL-23">
          <mxGeometry relative="1" as="geometry">
            <mxPoint x="260" y="810" as="targetPoint" />
          </mxGeometry>
        </mxCell>
        <mxCell id="4q2FcQhVwxfOFOzRsDYL-25" value="Sim" style="edgeLabel;html=1;align=center;verticalAlign=middle;resizable=0;points=[];" vertex="1" connectable="0" parent="4q2FcQhVwxfOFOzRsDYL-24">
          <mxGeometry x="-0.5" y="-4" relative="1" as="geometry">
            <mxPoint x="-10" y="-14" as="offset" />
          </mxGeometry>
        </mxCell>
        <mxCell id="4q2FcQhVwxfOFOzRsDYL-20" value="media &amp;gt;= 2&amp;nbsp;" style="strokeWidth=2;html=1;shape=mxgraph.flowchart.decision;whiteSpace=wrap;" vertex="1" parent="WIyWlLk6GJQsqaUBKTNV-1">
          <mxGeometry x="100" y="770" width="100" height="80" as="geometry" />
        </mxCell>
        <mxCell id="4q2FcQhVwxfOFOzRsDYL-23" value="Recuperação" style="strokeWidth=2;html=1;shape=mxgraph.flowchart.display;whiteSpace=wrap;" vertex="1" parent="WIyWlLk6GJQsqaUBKTNV-1">
          <mxGeometry x="200" y="880" width="100" height="60" as="geometry" />
        </mxCell>
        <mxCell id="4q2FcQhVwxfOFOzRsDYL-27" value="Reprovado" style="strokeWidth=2;html=1;shape=mxgraph.flowchart.display;whiteSpace=wrap;" vertex="1" parent="WIyWlLk6GJQsqaUBKTNV-1">
          <mxGeometry x="-10" y="880" width="100" height="60" as="geometry" />
        </mxCell>
        <mxCell id="4q2FcQhVwxfOFOzRsDYL-28" style="edgeStyle=orthogonalEdgeStyle;rounded=0;orthogonalLoop=1;jettySize=auto;html=1;exitX=0;exitY=0.5;exitDx=0;exitDy=0;exitPerimeter=0;entryX=0.5;entryY=0;entryDx=0;entryDy=0;entryPerimeter=0;" edge="1" parent="WIyWlLk6GJQsqaUBKTNV-1" source="4q2FcQhVwxfOFOzRsDYL-20" target="4q2FcQhVwxfOFOzRsDYL-27">
          <mxGeometry relative="1" as="geometry" />
        </mxCell>
        <mxCell id="4q2FcQhVwxfOFOzRsDYL-39" value="Não" style="edgeLabel;html=1;align=center;verticalAlign=middle;resizable=0;points=[];" vertex="1" connectable="0" parent="4q2FcQhVwxfOFOzRsDYL-28">
          <mxGeometry x="-0.5846" y="-1" relative="1" as="geometry">
            <mxPoint x="-13" y="-19" as="offset" />
          </mxGeometry>
        </mxCell>
        <mxCell id="4q2FcQhVwxfOFOzRsDYL-38" style="edgeStyle=orthogonalEdgeStyle;rounded=0;orthogonalLoop=1;jettySize=auto;html=1;exitX=0.5;exitY=1;exitDx=0;exitDy=0;exitPerimeter=0;entryX=0.5;entryY=0;entryDx=0;entryDy=0;" edge="1" parent="WIyWlLk6GJQsqaUBKTNV-1" source="4q2FcQhVwxfOFOzRsDYL-30" target="4q2FcQhVwxfOFOzRsDYL-1">
          <mxGeometry relative="1" as="geometry" />
        </mxCell>
        <mxCell id="4q2FcQhVwxfOFOzRsDYL-30" value="" style="verticalLabelPosition=bottom;verticalAlign=top;html=1;shape=mxgraph.flowchart.on-page_reference;" vertex="1" parent="WIyWlLk6GJQsqaUBKTNV-1">
          <mxGeometry x="295" y="1050" width="30" height="20" as="geometry" />
        </mxCell>
        <mxCell id="4q2FcQhVwxfOFOzRsDYL-31" style="edgeStyle=orthogonalEdgeStyle;rounded=0;orthogonalLoop=1;jettySize=auto;html=1;exitX=0.5;exitY=1;exitDx=0;exitDy=0;exitPerimeter=0;entryX=1;entryY=0.5;entryDx=0;entryDy=0;entryPerimeter=0;" edge="1" parent="WIyWlLk6GJQsqaUBKTNV-1" source="4q2FcQhVwxfOFOzRsDYL-16" target="4q2FcQhVwxfOFOzRsDYL-30">
          <mxGeometry relative="1" as="geometry" />
        </mxCell>
        <mxCell id="4q2FcQhVwxfOFOzRsDYL-34" value="" style="verticalLabelPosition=bottom;verticalAlign=top;html=1;shape=mxgraph.flowchart.on-page_reference;" vertex="1" parent="WIyWlLk6GJQsqaUBKTNV-1">
          <mxGeometry x="135" y="1010" width="30" height="20" as="geometry" />
        </mxCell>
        <mxCell id="4q2FcQhVwxfOFOzRsDYL-35" style="edgeStyle=orthogonalEdgeStyle;rounded=0;orthogonalLoop=1;jettySize=auto;html=1;exitX=0.5;exitY=1;exitDx=0;exitDy=0;exitPerimeter=0;entryX=0;entryY=0.5;entryDx=0;entryDy=0;entryPerimeter=0;" edge="1" parent="WIyWlLk6GJQsqaUBKTNV-1" source="4q2FcQhVwxfOFOzRsDYL-27" target="4q2FcQhVwxfOFOzRsDYL-34">
          <mxGeometry relative="1" as="geometry" />
        </mxCell>
        <mxCell id="4q2FcQhVwxfOFOzRsDYL-36" style="edgeStyle=orthogonalEdgeStyle;rounded=0;orthogonalLoop=1;jettySize=auto;html=1;exitX=0.5;exitY=1;exitDx=0;exitDy=0;exitPerimeter=0;entryX=1;entryY=0.5;entryDx=0;entryDy=0;entryPerimeter=0;" edge="1" parent="WIyWlLk6GJQsqaUBKTNV-1" source="4q2FcQhVwxfOFOzRsDYL-23" target="4q2FcQhVwxfOFOzRsDYL-34">
          <mxGeometry relative="1" as="geometry" />
        </mxCell>
        <mxCell id="4q2FcQhVwxfOFOzRsDYL-37" style="edgeStyle=orthogonalEdgeStyle;rounded=0;orthogonalLoop=1;jettySize=auto;html=1;exitX=0.5;exitY=1;exitDx=0;exitDy=0;exitPerimeter=0;entryX=0;entryY=0.5;entryDx=0;entryDy=0;entryPerimeter=0;" edge="1" parent="WIyWlLk6GJQsqaUBKTNV-1" source="4q2FcQhVwxfOFOzRsDYL-34" target="4q2FcQhVwxfOFOzRsDYL-30">
          <mxGeometry relative="1" as="geometry" />
        </mxCell>
      </root>
    </mxGraphModel>
  </diagram>
</mxfile>
